<svg xmlns="http://www.w3.org/2000/svg" xmlns:xlink="http://www.w3.org/1999/xlink" xmlns:lucid="lucid" width="3222" height="1151.98"><g transform="translate(1241 470.97526041666663)" lucid:page-tab-id="0_0"><path d="M-1500-500h3500v1500h-3500z" fill="#fff"/><path d="M-1020 366a6 6 0 0 1 6-6h148a6 6 0 0 1 6 6v108a6 6 0 0 1-6 6h-148a6 6 0 0 1-6-6z" stroke="#000" stroke-width="2" fill="#fff"/><use xlink:href="#a" transform="matrix(1,0,0,1,-1008,372) translate(6.7369791666666785 39.52777777777778)"/><use xlink:href="#b" transform="matrix(1,0,0,1,-1008,372) translate(97.31857638888889 39.52777777777778)"/><use xlink:href="#c" transform="matrix(1,0,0,1,-1008,372) translate(11.332248263888886 71.79340277777777)"/><path d="M-704 366a6 6 0 0 1 6-6h148a6 6 0 0 1 6 6v108a6 6 0 0 1-6 6h-148a6 6 0 0 1-6-6z" stroke="#000" stroke-width="2" fill="#fff"/><use xlink:href="#d" transform="matrix(1,0,0,1,-692,372) translate(27.803602430555557 39.52777777777778)"/><use xlink:href="#e" transform="matrix(1,0,0,1,-692,372) translate(81.74240451388889 39.52777777777778)"/><use xlink:href="#f" transform="matrix(1,0,0,1,-692,372) translate(28.671657986111114 71.79340277777777)"/><path d="M-858.5 420h137.12" stroke="#3a414a" fill="none"/><path d="M-858.5 420.48h-.5v-.96h.5z" stroke="#3a414a" stroke-width=".05" fill="#3a414a"/><path d="M-706.62 420l-14.26 4.63v-9.26z" stroke="#3a414a" fill="#3a414a"/><path d="M-108.6 317.43a7.17 7.17 0 0 1 9.2 0l110.8 92.72a5.02 5.02 0 0 1 0 7.7l-110.8 92.72a7.17 7.17 0 0 1-9.2 0l-110.8-92.72a5.02 5.02 0 0 1 0-7.7z" stroke="#000" stroke-width="2" fill="#fff"/><use xlink:href="#g" transform="matrix(1,0,0,1,-219,318.57877604166663) translate(64.60352430555557 75.24652777777777)"/><use xlink:href="#h" transform="matrix(1,0,0,1,-219,318.57877604166663) translate(48.49566840277778 107.51215277777777)"/><use xlink:href="#i" transform="matrix(1,0,0,1,-219,318.57877604166663) translate(112.48221354166667 107.51215277777777)"/><use xlink:href="#j" transform="matrix(1,0,0,1,-219,318.57877604166663) translate(169.0360329861111 107.51215277777777)"/><use xlink:href="#k" transform="matrix(1,0,0,1,-219,318.57877604166663) translate(84.25955729166667 139.77777777777777)"/><path d="M-95.68 100.97h-2.28l-.83.07-.75.18-.73.3-.67.42-.6.5-.5.6-.42.68-.3.73-.2.76-.06.84v207.72h-1.94v-207.8l.08-1.05.26-1.06.42-1 .58-.94.7-.83.84-.7.93-.6 1-.4 1.08-.26 1.06-.07h2.36zm236.18 0H-64.08v-1.94H140.5z" stroke="#008a0e" stroke-width=".05" fill="#008a0e"/><path d="M-103.03 314.82l-.97-.06-.97.06v-1.1h1.94z" fill="#008a0e"/><path stroke="#008a0e" stroke-width=".05" fill="#008a0e"/><path d="M155.76 100l-14.26 4.64v-9.28z" fill="#008a0e"/><path d="M158.92 100l-18.4 5.98V94.02zm-16.45 3.3l10.14-3.3-10.13-3.3z" stroke="#008a0e" stroke-width=".05" fill="#008a0e"/><use xlink:href="#l" transform="matrix(1,0,0,1,-95.67642958096229,89.24479166666667) translate(0 17.22222222222222)"/><path d="M160 46a6 6 0 0 1 6-6h148a6 6 0 0 1 6 6v108a6 6 0 0 1-6 6H166a6 6 0 0 1-6-6z" stroke="#000" stroke-width="2" fill="#fff"/><use xlink:href="#m" transform="matrix(1,0,0,1,165,45) translate(26.101345486111107 31.84027777777778)"/><use xlink:href="#n" transform="matrix(1,0,0,1,165,45) translate(8.317057291666671 64.10590277777777)"/><use xlink:href="#o" transform="matrix(1,0,0,1,165,45) translate(112.41861979166667 64.10590277777777)"/><use xlink:href="#p" transform="matrix(1,0,0,1,165,45) translate(17.263454861111114 96.37152777777777)"/><use xlink:href="#q" transform="matrix(1,0,0,1,165,45) translate(75 96.37152777777777)"/><path d="M-422.77 420.48H-542.5v-.96h119.73zm184.18-6h-11.45v-.96h11.47z" stroke="#3a414a" stroke-width=".05" fill="#3a414a"/><path d="M-542.5 420.48h-.5v-.96h.5z" fill="#3a414a"/><path stroke="#3a414a" stroke-width=".05" fill="#3a414a"/><path d="M-223.82 414l-14.27 4.63v-9.26z" fill="#3a414a"/><path d="M-222.28 414l-16.28 5.3v-10.6zm-15.33 3.98l12.24-3.98-12.25-3.98z" stroke="#3a414a" stroke-width=".05" fill="#3a414a"/><use xlink:href="#r" transform="matrix(1,0,0,1,-422.7709732369541,403.2447916666667) translate(0 17.22222222222222)"/><use xlink:href="#s" transform="matrix(1,0,0,1,-422.7709732369541,403.2447916666667) translate(50.24305555555556 17.22222222222222)"/><use xlink:href="#t" transform="matrix(1,0,0,1,-422.7709732369541,403.2447916666667) translate(77.35243055555556 17.22222222222222)"/><use xlink:href="#u" transform="matrix(1,0,0,1,-422.7709732369541,403.2447916666667) translate(98.80208333333334 17.22222222222222)"/><use xlink:href="#v" transform="matrix(1,0,0,1,-422.7709732369541,403.2447916666667) translate(134.8871527777778 17.22222222222222)"/><path d="M-103.03 613.96l.07.83.18.75.3.73.42.67.5.6.6.5.68.43.73.3.76.18.84.06h59.86V621h-59.94l-1.05-.1-1.06-.24-1-.42-.94-.58-.83-.7-.7-.84-.6-.93-.4-1-.26-1.08-.07-1.06v-99.8h1.94zm243.53 5.06V621H-13.65V619z" stroke="#e81313" stroke-width=".05" fill="#e81313"/><path d="M-104 513.24l.97-.06v1.1h-1.94v-1.1z" fill="#e81313"/><path stroke="#e81313" stroke-width=".05" fill="#e81313"/><path d="M155.76 620l-14.26 4.63v-9.26z" fill="#e81313"/><path d="M158.92 620l-18.4 5.98v-11.96zm-16.45 3.3l10.14-3.3-10.13-3.3z" stroke="#e81313" stroke-width=".05" fill="#e81313"/><use xlink:href="#w" transform="matrix(1,0,0,1,-38.104380928184526,609.2447916666666) translate(0 17.22222222222222)"/><path d="M160 566a6 6 0 0 1 6-6h148a6 6 0 0 1 6 6v108a6 6 0 0 1-6 6H166a6 6 0 0 1-6-6z" stroke="#000" stroke-width="2" fill="#fff"/><use xlink:href="#x" transform="matrix(1,0,0,1,172,572) translate(10.692057291666671 57.52777777777778)"/><use xlink:href="#y" transform="matrix(1,0,0,1,172,572) translate(46.304036458333336 57.52777777777778)"/><path d="M595.14 2.03a8.28 8.28 0 0 1 9.72 0l130.28 94.45a4.35 4.35 0 0 1 0 7.04l-130.28 94.45a8.28 8.28 0 0 1-9.72 0l-130.28-94.45a4.35 4.35 0 0 1 0-7.04z" stroke="#000" stroke-width="2" fill="#fff"/><use xlink:href="#z" transform="matrix(1,0,0,1,465,3.5123697916666714) translate(88.1734027777778 69.77777777777777)"/><use xlink:href="#A" transform="matrix(1,0,0,1,465,3.5123697916666714) translate(148.47071180555554 69.77777777777777)"/><use xlink:href="#n" transform="matrix(1,0,0,1,465,3.5123697916666714) translate(30.729826388888906 102.04340277777777)"/><use xlink:href="#B" transform="matrix(1,0,0,1,465,3.5123697916666714) translate(134.8313888888889 102.04340277777777)"/><use xlink:href="#A" transform="matrix(1,0,0,1,465,3.5123697916666714) translate(205.91428819444445 102.04340277777777)"/><use xlink:href="#C" transform="matrix(1,0,0,1,465,3.5123697916666714) translate(114.03603298611111 134.30902777777777)"/><path d="M321.5 100h124.17" stroke="#3a414a" fill="none"/><path d="M321.5 100.47h-.5v-.94h.5z" stroke="#3a414a" stroke-width=".05" fill="#3a414a"/><path d="M460.44 100l-14.27 4.64v-9.28z" stroke="#3a414a" fill="#3a414a"/><path d="M641.47-184.04h-35.43l-.83.07-.75.18-.73.3-.67.43-.6.5-.5.6-.43.68-.3.74-.18.76-.06.83V-1.54H599v-177.5l.1-1.06.24-1.07.42-1 .58-.94.7-.85.84-.7.93-.58 1-.42 1.08-.25 1.06-.1h35.5zm239.03 0H673.06V-186H880.5z" stroke="#008a0e" stroke-width=".05" fill="#008a0e"/><path d="M600.98-.48L600-.54l-.98.06v-1.1H601z" fill="#008a0e"/><path stroke="#008a0e" stroke-width=".05" fill="#008a0e"/><path d="M895.76-185l-14.26 4.62v-9.27z" fill="#008a0e"/><path d="M898.92-185l-18.4 5.97V-191zm-16.45 3.28l10.14-3.3-10.13-3.3z" stroke="#008a0e" stroke-width=".05" fill="#008a0e"/><use xlink:href="#l" transform="matrix(1,0,0,1,641.467031657818,-195.767578125) translate(0 17.22222222222222)"/><path d="M900-234a6 6 0 0 1 6-6h228a6 6 0 0 1 6 6v97.97a6 6 0 0 1-6 6H906a6 6 0 0 1-6-6z" stroke="#000" stroke-width="2" fill="#fff"/><use xlink:href="#D" transform="matrix(1,0,0,1,912,-228) translate(22.89800347222223 34.96527777777778)"/><use xlink:href="#E" transform="matrix(1,0,0,1,912,-228) translate(106.28559027777779 34.96527777777778)"/><use xlink:href="#F" transform="matrix(1,0,0,1,912,-228) translate(48.41341145833334 67.23090277777777)"/><path d="M600.98 293.96l.06.83.18.75.3.73.42.67.5.6.6.5.68.43.73.3.76.18.84.06h91.5v1.96h-91.58l-1.05-.1-1.06-.24-1-.42-.94-.58-.83-.7-.72-.84-.57-.93-.42-1-.25-1.08-.08-1.06v-92.5H601zm299.52 5.06v1.96H722v-1.96z" stroke="#e81313" stroke-width=".05" fill="#e81313"/><path d="M600 200.54l.98-.06v1.1H599v-1.1z" fill="#e81313"/><path stroke="#e81313" stroke-width=".05" fill="#e81313"/><path d="M915.76 300l-14.26 4.63v-9.26z" fill="#e81313"/><path d="M918.92 300l-18.4 5.98v-11.96zm-16.45 3.3l10.14-3.3-10.13-3.3z" stroke="#e81313" stroke-width=".05" fill="#e81313"/><use xlink:href="#w" transform="matrix(1,0,0,1,697.545265486691,289.2447916666667) translate(0 17.22222222222222)"/><path d="M920 246a6 6 0 0 1 6-6h148a6 6 0 0 1 6 6v108a6 6 0 0 1-6 6H926a6 6 0 0 1-6-6z" stroke="#000" stroke-width="2" fill="#fff"/><use xlink:href="#G" transform="matrix(1,0,0,1,932,252) translate(29.610243055555557 39.52777777777778)"/><use xlink:href="#H" transform="matrix(1,0,0,1,932,252) translate(14.598307291666671 71.79340277777777)"/><path d="M1141.5-185h164.93" stroke="#3a414a" fill="none"/><path d="M1141.5-184.54h-.5v-.95h.5z" stroke="#3a414a" stroke-width=".05" fill="#3a414a"/><path d="M1321.2-185l-14.27 4.62v-9.27z" stroke="#3a414a" fill="#3a414a"/><path d="M1464.56-252.47a12.86 12.86 0 0 1 10.88 0l139.12 64.92a2.8 2.8 0 0 1 0 5.08l-139.12 64.92a12.86 12.86 0 0 1-10.88 0l-139.12-64.92a2.8 2.8 0 0 1 0-5.08z" stroke="#000" stroke-width="2" fill="#fff"/><use xlink:href="#z" transform="matrix(1,0,0,1,1332,-243.01236979166666) translate(64.44814236111111 50.52777777777778)"/><use xlink:href="#E" transform="matrix(1,0,0,1,1332,-243.01236979166666) translate(124.74545138888888 50.52777777777778)"/><use xlink:href="#I" transform="matrix(1,0,0,1,1332,-243.01236979166666) translate(55.40408854166669 82.79340277777777)"/><use xlink:href="#J" transform="matrix(1,0,0,1,1332,-243.01236979166666) translate(107.74783854166668 82.79340277777777)"/><use xlink:href="#K" transform="matrix(1,0,0,1,1332,-243.01236979166666) translate(131.10938368055557 82.79340277777777)"/><path d="M1516.04-379.02h-40l-.83.06-.75.18-.73.3-.67.42-.6.5-.5.6-.42.68-.3.73-.2.76-.06.84v118.28h-1.94v-118.36l.08-1.05.26-1.06.42-1 .58-.94.7-.83.84-.7.93-.6 1-.4 1.08-.26 1.06-.08h40.08zm184.46 0h-152.86v-1.96h152.86z" stroke="#008a0e" stroke-width=".05" fill="#008a0e"/><path d="M1470.97-254.64l-.97-.04-.97.04v-1.07h1.94z" fill="#008a0e"/><path stroke="#008a0e" stroke-width=".05" fill="#008a0e"/><path d="M1715.76-380l-14.26 4.63v-9.26z" fill="#008a0e"/><path d="M1718.92-380l-18.4 5.98v-11.96zm-16.45 3.3l10.14-3.3-10.13-3.3z" stroke="#008a0e" stroke-width=".05" fill="#008a0e"/><g><use xlink:href="#l" transform="matrix(1,0,0,1,1516.0425232552047,-390.7552083333333) translate(0 17.22222222222222)"/></g><path d="M1720-463.98a6 6 0 0 1 6-6h248a6 6 0 0 1 6 6V-296a6 6 0 0 1-6 6h-248a6 6 0 0 1-6-6z" stroke="#000" stroke-width="2" fill="#fff"/><g><use xlink:href="#L" transform="matrix(1,0,0,1,1732,-457.97526041666663) translate(6.655598958333329 70.27777777777777)"/><use xlink:href="#M" transform="matrix(1,0,0,1,1732,-457.97526041666663) translate(89.68511284722221 70.27777777777777)"/><use xlink:href="#N" transform="matrix(1,0,0,1,1732,-457.97526041666663) translate(203.83441840277777 70.27777777777777)"/><use xlink:href="#O" transform="matrix(1,0,0,1,1732,-457.97526041666663) translate(10.203776041666671 102.54340277777777)"/><use xlink:href="#P" transform="matrix(1,0,0,1,1732,-457.97526041666663) translate(30.765842013888893 102.54340277777777)"/><use xlink:href="#Q" transform="matrix(1,0,0,1,1732,-457.97526041666663) translate(92.267578125 102.54340277777777)"/><use xlink:href="#R" transform="matrix(1,0,0,1,1732,-457.97526041666663) translate(130.85264756944446 102.54340277777777)"/></g><path d="M1470.97-26.04l.07.83.18.75.3.73.42.67.5.6.6.5.68.43.73.3.76.18.84.06h58.56v1.96h-58.64l-1.05-.1-1.06-.24-1-.42-.94-.57-.83-.72-.7-.83-.6-.93-.4-1-.26-1.08-.07-1.06v-88.38h1.94zm229.53 5.06v1.96h-141.44v-1.96z" stroke="#e81313" stroke-width=".05" fill="#e81313"/><path d="M1470-115.34l.97-.05v1.08h-1.94v-1.07z" fill="#e81313"/><path stroke="#e81313" stroke-width=".05" fill="#e81313"/><path d="M1715.76-20l-14.26 4.63v-9.27z" fill="#e81313"/><path d="M1718.92-20l-18.4 5.98v-11.96zm-16.45 3.3l10.14-3.3-10.13-3.3z" stroke="#e81313" stroke-width=".05" fill="#e81313"/><g><use xlink:href="#w" transform="matrix(1,0,0,1,1534.602202074649,-30.755208333333332) translate(0 17.22222222222222)"/></g><path d="M1720-74a6 6 0 0 1 6-6h248a6 6 0 0 1 6 6V34a6 6 0 0 1-6 6h-248a6 6 0 0 1-6-6z" stroke="#000" stroke-width="2" fill="#fff"/><g><use xlink:href="#L" transform="matrix(1,0,0,1,1732,-68) translate(0.6063368055555713 57.52777777777778)"/><use xlink:href="#S" transform="matrix(1,0,0,1,1732,-68) translate(83.63585069444446 57.52777777777778)"/><use xlink:href="#T" transform="matrix(1,0,0,1,1732,-68) translate(179.27387152777777 57.52777777777778)"/></g><path d="M240 558.5V420a6 6 0 0 0-6-6H30.6" stroke="#3a414a" fill="none"/><path d="M240.47 559h-.94v-.5h.94z" stroke="#3a414a" stroke-width=".05" fill="#3a414a"/><path d="M15.82 414l14.27-4.63-.02 9.26z" stroke="#3a414a" fill="#3a414a"/><path d="M-1120 420c0 33.14-26.86 60-60 60s-60-26.86-60-60 26.86-60 60-60 60 26.86 60 60z" stroke="#000" stroke-width="2" fill="#b8f5ed"/><g><use xlink:href="#U" transform="matrix(1,0,0,1,-1235,365) translate(29.951171875000004 62.77777777777778)"/></g><path d="M-1118.5 420h81.12" stroke="#3a414a" fill="none"/><path d="M-1118.5 420.48h-.52l.02-.48-.02-.48h.53z" stroke="#3a414a" stroke-width=".05" fill="#3a414a"/><path d="M-1022.62 420l-14.26 4.63v-9.26z" stroke="#3a414a" fill="#3a414a"/><defs><path d="M180 0v-1490h190v1322h690V0H180" id="V"/><path d="M613 24c-304 0-509-231-509-576 0-350 205-580 509-580 305 0 511 230 511 580 0 345-206 576-511 576zm0-161c226 0 329-195 329-415 0-222-103-419-329-419-223 0-326 196-326 419 0 220 103 415 326 415" id="W"/><path d="M471 26C259 26 90-98 90-318c0-256 228-303 435-329 202-27 287-16 287-108 0-139-79-219-234-219-161 0-248 86-283 164l-173-57c86-203 278-265 451-265 150 0 419 46 419 395V0H815v-152h-12C765-73 660 26 471 26zm31-159c199 0 310-134 310-271v-155c-30 35-226 55-295 64-131 17-246 59-246 186 0 116 97 176 231 176" id="X"/><path d="M577 24c-279 0-473-224-473-580 0-354 195-576 474-576 218 0 287 134 324 193h14v-551h180V0H922v-173h-20C865-111 790 24 577 24zm27-161c203 0 314-172 314-421 0-247-108-413-314-413-212 0-317 181-317 413 0 235 108 421 317 421" id="Y"/><path d="M158 0v-1118h180V0H158zm91-1301c-68 0-125-53-125-119s57-119 125-119c69 0 126 53 126 119s-57 119-126 119" id="Z"/><path d="M338-670V0H158v-1118h173l1 207c72-158 192-221 342-221 226 0 378 139 378 422V0H872v-695c0-172-96-275-252-275-161 0-282 109-282 300" id="aa"/><path d="M611 442c-248 0-391-105-460-228l146-94c47 65 117 165 314 165 178 0 307-82 307-266v-224h-17C863-141 792-18 576-18c-268 0-472-195-472-546 0-346 197-568 476-568 216 0 288 133 326 193h17v-179h175V29c0 289-215 413-487 413zm-5-620c203 0 314-146 314-390 0-237-108-403-314-403-213 0-319 180-319 403 0 230 109 390 319 390" id="ab"/><g id="a"><use transform="matrix(0.010850694444444444,0,0,0.010850694444444444,0,0)" xlink:href="#V"/><use transform="matrix(0.010850694444444444,0,0,0.010850694444444444,12.565104166666666,0)" xlink:href="#W"/><use transform="matrix(0.010850694444444444,0,0,0.010850694444444444,26.106770833333332,0)" xlink:href="#X"/><use transform="matrix(0.010850694444444444,0,0,0.010850694444444444,38.58506944444444,0)" xlink:href="#Y"/><use transform="matrix(0.010850694444444444,0,0,0.010850694444444444,52.19184027777778,0)" xlink:href="#Z"/><use transform="matrix(0.010850694444444444,0,0,0.010850694444444444,57.57378472222221,0)" xlink:href="#aa"/><use transform="matrix(0.010850694444444444,0,0,0.010850694444444444,70.70312499999999,0)" xlink:href="#ab"/></g><path d="M678-1118v154H420V0H240v-964H20v-154h220v-149c0-194 155-293 318-293 85 0 141 18 168 30l-50 154c-19-6-47-17-97-17-111 0-159 58-159 166v109h258" id="ac"/><path d="M338-1490V0H158v-1490h180" id="ad"/><path d="M628 24c-324 0-524-230-524-574 0-343 198-582 503-582 237 0 487 146 487 559v75H286c9 234 145 362 343 362 132 0 231-58 273-172l174 48C1024-91 857 24 628 24zM287-650h624c-17-190-120-322-304-322-192 0-309 151-320 322" id="ae"/><g id="b"><use transform="matrix(0.010850694444444444,0,0,0.010850694444444444,0,0)" xlink:href="#ac"/><use transform="matrix(0.010850694444444444,0,0,0.010850694444444444,8.22482638888889,0)" xlink:href="#Z"/><use transform="matrix(0.010850694444444444,0,0,0.010850694444444444,13.606770833333332,0)" xlink:href="#ad"/><use transform="matrix(0.010850694444444444,0,0,0.010850694444444444,18.98871527777778,0)" xlink:href="#ae"/></g><path d="M295 13c-75 0-135-60-135-135s60-135 135-135 135 60 135 135S370 13 295 13" id="af"/><path d="M158 418v-1536h174v179h20c37-59 106-193 324-193 279 0 474 222 474 576 0 356-194 580-473 580-213 0-288-135-325-197h-14v591H158zm492-555c209 0 317-186 317-421 0-232-105-413-317-413-206 0-314 166-314 413 0 249 111 421 314 421" id="ag"/><path d="M613 24c-304 0-509-231-509-576 0-350 205-580 509-580 216 0 392 114 453 309l-173 49c-33-115-133-197-280-197-223 0-326 196-326 419 0 220 103 415 326 415 150 0 252-85 285-206l172 49C1010-95 832 24 613 24" id="ah"/><path d="M158 0v-1490h180v865h22l478-493h223L593-638 1096 0H865L456-523 338-412V0H158" id="ai"/><path d="M692-1560L212 224H46l480-1784h166" id="aj"/><g id="c"><use transform="matrix(0.010850694444444444,0,0,0.010850694444444444,0,0)" xlink:href="#af"/><use transform="matrix(0.010850694444444444,0,0,0.010850694444444444,6.401909722222222,0)" xlink:href="#ag"/><use transform="matrix(0.010850694444444444,0,0,0.010850694444444444,20.008680555555554,0)" xlink:href="#Z"/><use transform="matrix(0.010850694444444444,0,0,0.010850694444444444,25.390625,0)" xlink:href="#ah"/><use transform="matrix(0.010850694444444444,0,0,0.010850694444444444,38.0859375,0)" xlink:href="#ai"/><use transform="matrix(0.010850694444444444,0,0,0.010850694444444444,50.28211805555556,0)" xlink:href="#ad"/><use transform="matrix(0.010850694444444444,0,0,0.010850694444444444,55.6640625,0)" xlink:href="#ae"/><use transform="matrix(0.010850694444444444,0,0,0.010850694444444444,68.61979166666667,0)" xlink:href="#aj"/><use transform="matrix(0.010850694444444444,0,0,0.010850694444444444,75.74869791666667,0)" xlink:href="#af"/><use transform="matrix(0.010850694444444444,0,0,0.010850694444444444,82.1506076388889,0)" xlink:href="#ag"/><use transform="matrix(0.010850694444444444,0,0,0.010850694444444444,95.75737847222221,0)" xlink:href="#ai"/><use transform="matrix(0.010850694444444444,0,0,0.010850694444444444,107.9535590277778,0)" xlink:href="#ad"/></g><path d="M98-1322v-168h1126v168H757V0H567v-1322H98" id="ak"/><path d="M537 14c-226 0-379-139-379-422v-710h180v695c0 172 97 275 253 275 160 0 281-109 281-300v-670h181V0H879v-209C806-46 684 14 537 14" id="al"/><path d="M158 0v-1118h174v172h12c41-113 157-188 290-188 26 0 70 2 91 3v181c-11-2-60-10-108-10-161 0-279 109-279 260V0H158" id="am"/><g id="d"><use transform="matrix(0.010850694444444444,0,0,0.010850694444444444,0,0)" xlink:href="#ak"/><use transform="matrix(0.010850694444444444,0,0,0.010850694444444444,12.706163194444445,0)" xlink:href="#al"/><use transform="matrix(0.010850694444444444,0,0,0.010850694444444444,25.846354166666664,0)" xlink:href="#am"/><use transform="matrix(0.010850694444444444,0,0,0.010850694444444444,34.55946180555555,0)" xlink:href="#aa"/></g><g id="e"><use transform="matrix(0.010850694444444444,0,0,0.010850694444444444,0,0)" xlink:href="#W"/><use transform="matrix(0.010850694444444444,0,0,0.010850694444444444,13.324652777777777,0)" xlink:href="#aa"/></g><path d="M158 0v-1118h175l1 205c55-151 181-225 313-225 147 0 245 90 285 228 53-141 190-228 352-228 194 0 352 125 352 384V0h-181v-749c0-161-105-225-225-225-151 0-243 103-243 244V0H807v-767c0-124-93-207-219-207-131 0-250 92-250 270V0H158" id="an"/><g id="f"><use transform="matrix(0.010850694444444444,0,0,0.010850694444444444,0,0)" xlink:href="#ah"/><use transform="matrix(0.010850694444444444,0,0,0.010850694444444444,12.91232638888889,0)" xlink:href="#X"/><use transform="matrix(0.010850694444444444,0,0,0.010850694444444444,25.390625,0)" xlink:href="#an"/><use transform="matrix(0.010850694444444444,0,0,0.010850694444444444,44.85677083333333,0)" xlink:href="#ae"/><use transform="matrix(0.010850694444444444,0,0,0.010850694444444444,57.812499999999986,0)" xlink:href="#am"/><use transform="matrix(0.010850694444444444,0,0,0.010850694444444444,66.17838541666666,0)" xlink:href="#X"/></g><path d="M645 0H180v-1490h484c435 0 692 280 692 742 0 466-257 748-711 748zM370-168h263c363 0 539-218 539-580 0-358-176-574-521-574H370v1154" id="ao"/><path d="M598-1118v154H368v674c0 100 37 144 132 144 23 0 62-6 92-12L629-6c-37 13-88 20-134 20-193 0-307-107-307-290v-688H20v-154h168v-266h180v266h230" id="ap"/><g id="g"><use transform="matrix(0.010850694444444444,0,0,0.010850694444444444,0,0)" xlink:href="#ao"/><use transform="matrix(0.010850694444444444,0,0,0.010850694444444444,16.03732638888889,0)" xlink:href="#ae"/><use transform="matrix(0.010850694444444444,0,0,0.010850694444444444,28.99305555555556,0)" xlink:href="#ap"/><use transform="matrix(0.010850694444444444,0,0,0.010850694444444444,36.04600694444444,0)" xlink:href="#ae"/><use transform="matrix(0.010850694444444444,0,0,0.010850694444444444,49.00173611111111,0)" xlink:href="#ah"/><use transform="matrix(0.010850694444444444,0,0,0.010850694444444444,61.69704861111111,0)" xlink:href="#ap"/><use transform="matrix(0.010850694444444444,0,0,0.010850694444444444,68.96701388888889,0)" xlink:href="#Z"/><use transform="matrix(0.010850694444444444,0,0,0.010850694444444444,74.34895833333333,0)" xlink:href="#W"/><use transform="matrix(0.010850694444444444,0,0,0.010850694444444444,87.6736111111111,0)" xlink:href="#aa"/></g><path d="M538 24C308 24 148-78 108-271l171-41c32 123 123 178 257 178 156 0 256-77 256-169 0-77-54-128-164-154l-186-44c-203-48-300-148-300-305 0-192 176-326 414-326 230 0 351 112 402 269l-163 42c-31-80-94-158-238-158-133 0-233 69-233 162 0 83 57 129 188 160l169 40c203 48 298 149 298 302 0 196-179 339-441 339" id="aq"/><g id="h"><use transform="matrix(0.010850694444444444,0,0,0.010850694444444444,0,0)" xlink:href="#ac"/><use transform="matrix(0.010850694444444444,0,0,0.010850694444444444,7.877604166666666,0)" xlink:href="#X"/><use transform="matrix(0.010850694444444444,0,0,0.010850694444444444,20.35590277777778,0)" xlink:href="#ah"/><use transform="matrix(0.010850694444444444,0,0,0.010850694444444444,33.05121527777778,0)" xlink:href="#ae"/><use transform="matrix(0.010850694444444444,0,0,0.010850694444444444,46.00694444444444,0)" xlink:href="#aq"/></g><path d="M338-670V0H158v-1490h180v566c73-149 190-208 336-208 226 0 379 139 379 422V0H872v-695c0-172-96-275-252-275-161 0-282 109-282 300" id="ar"/><path d="M481 0L54-1118h197c107 314 236 620 325 951 87-331 217-637 324-951h197L670 0H481" id="as"/><g id="i"><use transform="matrix(0.010850694444444444,0,0,0.010850694444444444,0,0)" xlink:href="#ar"/><use transform="matrix(0.010850694444444444,0,0,0.010850694444444444,13.140190972222221,0)" xlink:href="#X"/><use transform="matrix(0.010850694444444444,0,0,0.010850694444444444,25.29296875,0)" xlink:href="#as"/><use transform="matrix(0.010850694444444444,0,0,0.010850694444444444,37.34809027777778,0)" xlink:href="#ae"/></g><use transform="matrix(0.010850694444444444,0,0,0.010850694444444444,0,0)" xlink:href="#X" id="j"/><g id="k"><use transform="matrix(0.010850694444444444,0,0,0.010850694444444444,0,0)" xlink:href="#ac"/><use transform="matrix(0.010850694444444444,0,0,0.010850694444444444,8.22482638888889,0)" xlink:href="#am"/><use transform="matrix(0.010850694444444444,0,0,0.010850694444444444,16.590711805555557,0)" xlink:href="#X"/><use transform="matrix(0.010850694444444444,0,0,0.010850694444444444,29.069010416666664,0)" xlink:href="#an"/><use transform="matrix(0.010850694444444444,0,0,0.010850694444444444,48.53515625,0)" xlink:href="#ae"/></g><path fill="#333" d="M601 0v-560L49-1490h357l252 464c38 68 67 130 97 208 96-243 225-446 337-672h356L905-560V0H601" id="at"/><path fill="#333" d="M633 22C291 22 81-200 81-553c0-345 210-579 537-579 292 0 525 185 525 567v84H378c7 183 109 277 260 277 105 0 184-46 216-132l272 51C1071-99 893 22 633 22zM380-669h474c-15-146-94-237-233-237-143 0-229 99-241 237" id="au"/><path fill="#333" d="M572 22C302 22 117-98 78-306l279-48c29 105 101 156 224 156 114 0 185-48 185-115 0-118-228-130-337-155-215-49-322-150-322-317 0-215 187-347 470-347 265 0 424 116 466 298l-266 47c-24-76-87-130-196-130-98 0-174 46-174 113 0 56 38 95 144 117l201 40c216 44 320 143 320 302 0 220-207 367-500 367" id="av"/><g id="l"><use transform="matrix(0.008680555555555556,0,0,0.008680555555555556,0,0)" xlink:href="#at"/><use transform="matrix(0.008680555555555556,0,0,0.008680555555555556,11.050347222222223,0)" xlink:href="#au"/><use transform="matrix(0.008680555555555556,0,0,0.008680555555555556,21.640625,0)" xlink:href="#av"/></g><path d="M783 20c-382 0-661-292-661-764 0-473 279-766 661-766 302 0 548 182 601 489h-190c-42-204-217-313-411-313-268 0-476 208-476 590 0 381 209 588 476 588 195 0 369-110 411-313h190c-52 303-296 489-601 489" id="aw"/><g id="m"><use transform="matrix(0.010850694444444444,0,0,0.010850694444444444,0,0)" xlink:href="#aw"/><use transform="matrix(0.010850694444444444,0,0,0.010850694444444444,16.23263888888889,0)" xlink:href="#X"/><use transform="matrix(0.010850694444444444,0,0,0.010850694444444444,28.7109375,0)" xlink:href="#ad"/><use transform="matrix(0.010850694444444444,0,0,0.010850694444444444,34.09288194444444,0)" xlink:href="#ah"/><use transform="matrix(0.010850694444444444,0,0,0.010850694444444444,46.78819444444444,0)" xlink:href="#al"/><use transform="matrix(0.010850694444444444,0,0,0.010850694444444444,59.928385416666664,0)" xlink:href="#ad"/><use transform="matrix(0.010850694444444444,0,0,0.010850694444444444,65.31032986111111,0)" xlink:href="#X"/><use transform="matrix(0.010850694444444444,0,0,0.010850694444444444,77.78862847222223,0)" xlink:href="#ap"/><use transform="matrix(0.010850694444444444,0,0,0.010850694444444444,84.84157986111111,0)" xlink:href="#ae"/></g><g id="n"><use transform="matrix(0.010850694444444444,0,0,0.010850694444444444,0,0)" xlink:href="#ae"/><use transform="matrix(0.010850694444444444,0,0,0.010850694444444444,12.955729166666666,0)" xlink:href="#aa"/><use transform="matrix(0.010850694444444444,0,0,0.010850694444444444,26.085069444444443,0)" xlink:href="#ah"/><use transform="matrix(0.010850694444444444,0,0,0.010850694444444444,38.78038194444444,0)" xlink:href="#W"/><use transform="matrix(0.010850694444444444,0,0,0.010850694444444444,52.10503472222222,0)" xlink:href="#Y"/><use transform="matrix(0.010850694444444444,0,0,0.010850694444444444,65.71180555555556,0)" xlink:href="#Z"/><use transform="matrix(0.010850694444444444,0,0,0.010850694444444444,71.09375,0)" xlink:href="#aa"/><use transform="matrix(0.010850694444444444,0,0,0.010850694444444444,84.22309027777777,0)" xlink:href="#ab"/></g><g id="o"><use transform="matrix(0.010850694444444444,0,0,0.010850694444444444,0,0)" xlink:href="#ac"/><use transform="matrix(0.010850694444444444,0,0,0.010850694444444444,7.573784722222222,0)" xlink:href="#W"/><use transform="matrix(0.010850694444444444,0,0,0.010850694444444444,20.8984375,0)" xlink:href="#am"/></g><g id="p"><use transform="matrix(0.010850694444444444,0,0,0.010850694444444444,0,0)" xlink:href="#ae"/><use transform="matrix(0.010850694444444444,0,0,0.010850694444444444,13.172743055555555,0)" xlink:href="#X"/><use transform="matrix(0.010850694444444444,0,0,0.010850694444444444,25.651041666666664,0)" xlink:href="#ah"/><use transform="matrix(0.010850694444444444,0,0,0.010850694444444444,38.346354166666664,0)" xlink:href="#ar"/></g><g id="q"><use transform="matrix(0.010850694444444444,0,0,0.010850694444444444,0,0)" xlink:href="#ac"/><use transform="matrix(0.010850694444444444,0,0,0.010850694444444444,7.877604166666666,0)" xlink:href="#X"/><use transform="matrix(0.010850694444444444,0,0,0.010850694444444444,20.35590277777778,0)" xlink:href="#ah"/><use transform="matrix(0.010850694444444444,0,0,0.010850694444444444,33.05121527777778,0)" xlink:href="#ae"/><use transform="matrix(0.010850694444444444,0,0,0.010850694444444444,46.00694444444444,0)" xlink:href="#aq"/></g><path fill="#333" d="M135 0v-1490h997v253H440v360h640v249H440v375h694V0H135" id="ax"/><path fill="#333" d="M428-647V0H128v-1118h283l4 231c63-156 176-245 348-245 232 0 384 159 384 421V0H847v-659c0-139-76-222-202-222-128 0-217 86-217 234" id="ay"/><path fill="#333" d="M683-1118v229H474v562c0 71 29 104 102 104 23 0 73-7 95-13l43 225C647 9 580 16 520 16 296 16 174-96 174-301v-588H20v-229h154v-266h300v266h209" id="az"/><path fill="#333" d="M128 0v-1118h290v195h12c54-169 184-238 367-200v268c-27-8-86-15-130-15-138 0-239 95-239 234V0H128" id="aA"/><g id="r"><use transform="matrix(0.008680555555555556,0,0,0.008680555555555556,0,0)" xlink:href="#ax"/><use transform="matrix(0.008680555555555556,0,0,0.008680555555555556,10.79861111111111,0)" xlink:href="#ay"/><use transform="matrix(0.008680555555555556,0,0,0.008680555555555556,21.866319444444443,0)" xlink:href="#az"/><use transform="matrix(0.008680555555555556,0,0,0.008680555555555556,28.203125,0)" xlink:href="#au"/><use transform="matrix(0.008680555555555556,0,0,0.008680555555555556,38.79340277777778,0)" xlink:href="#aA"/></g><path fill="#333" d="M233-870l-31-620h289l-30 620H233" id="aB"/><path fill="#333" d="M1163 418H863v-597h-10C812-89 719 19 537 19 279 19 81-185 81-557c0-382 206-575 454-575 190 0 278 113 318 202h15v-188h295V418zM629-222c153 0 240-134 240-336 0-203-86-334-240-334-158 0-240 138-240 334 0 197 84 336 240 336" id="aC"/><g id="s"><use transform="matrix(0.008680555555555556,0,0,0.008680555555555556,0,0)" xlink:href="#aB"/><use transform="matrix(0.008680555555555556,0,0,0.008680555555555556,5.6684027777777795,0)" xlink:href="#aC"/><use transform="matrix(0.008680555555555556,0,0,0.008680555555555556,16.875,0)" xlink:href="#aB"/></g><path fill="#333" d="M628 22C291 22 81-210 81-554c0-346 210-578 547-578 336 0 547 232 547 578 0 344-211 576-547 576zm0-236c160 0 242-146 242-341 0-197-82-341-242-341S387-753 387-555c0 195 81 341 241 341" id="aD"/><g id="t"><use transform="matrix(0.008680555555555556,0,0,0.008680555555555556,0,0)" xlink:href="#az"/><use transform="matrix(0.008680555555555556,0,0,0.008680555555555556,6.336805555555556,0)" xlink:href="#aD"/></g><path fill="#333" d="M42 0l360-574-338-544h324c72 124 151 261 209 394 58-134 140-271 215-394h318L785-570 1146 0H824c-79-136-169-280-234-425C528-278 439-134 360 0H42" id="aE"/><path fill="#333" d="M128 0v-1118h300V0H128zm150-1264c-91 0-165-68-165-154 0-85 74-154 165-154 90 0 165 69 165 154 0 86-75 154-165 154" id="aF"/><g id="u"><use transform="matrix(0.008680555555555556,0,0,0.008680555555555556,0,0)" xlink:href="#au"/><use transform="matrix(0.008680555555555556,0,0,0.008680555555555556,10.234375,0)" xlink:href="#aE"/><use transform="matrix(0.008680555555555556,0,0,0.008680555555555556,20.546875,0)" xlink:href="#aF"/><use transform="matrix(0.008680555555555556,0,0,0.008680555555555556,25.364583333333336,0)" xlink:href="#az"/></g><path fill="#333" d="M428-1490V0H128v-1490h300" id="aG"/><path fill="#333" d="M128 418v-1536h295v188h14c41-89 129-202 319-202 248 0 453 193 453 575 0 372-197 576-455 576-183 0-275-108-317-198h-9v597H128zm534-640c156 0 240-139 240-336 0-196-83-334-240-334-154 0-241 131-241 334 0 202 88 336 241 336" id="aH"/><g id="v"><use transform="matrix(0.008680555555555556,0,0,0.008680555555555556,0,0)" xlink:href="#aG"/><use transform="matrix(0.008680555555555556,0,0,0.008680555555555556,4.817708333333334,0)" xlink:href="#aD"/><use transform="matrix(0.008680555555555556,0,0,0.008680555555555556,15.720486111111112,0)" xlink:href="#aD"/><use transform="matrix(0.008680555555555556,0,0,0.008680555555555556,26.623263888888893,0)" xlink:href="#aH"/></g><path fill="#333" d="M135 0v-1490h340l471 754c59 97 122 210 187 365-32-387-14-721-19-1119h312V0h-341C855-382 627-689 427-1113c32 420 16 695 20 1113H135" id="aI"/><g id="w"><use transform="matrix(0.008680555555555556,0,0,0.008680555555555556,0,0)" xlink:href="#aI"/><use transform="matrix(0.008680555555555556,0,0,0.008680555555555556,13.550347222222223,0)" xlink:href="#aD"/></g><g id="x"><use transform="matrix(0.010850694444444444,0,0,0.010850694444444444,0,0)" xlink:href="#ao"/><use transform="matrix(0.010850694444444444,0,0,0.010850694444444444,16.03732638888889,0)" xlink:href="#W"/></g><g id="y"><use transform="matrix(0.010850694444444444,0,0,0.010850694444444444,0,0)" xlink:href="#aa"/><use transform="matrix(0.010850694444444444,0,0,0.010850694444444444,13.129340277777777,0)" xlink:href="#W"/><use transform="matrix(0.010850694444444444,0,0,0.010850694444444444,26.453993055555554,0)" xlink:href="#ap"/><use transform="matrix(0.010850694444444444,0,0,0.010850694444444444,33.72395833333333,0)" xlink:href="#ar"/><use transform="matrix(0.010850694444444444,0,0,0.010850694444444444,46.86414930555556,0)" xlink:href="#Z"/><use transform="matrix(0.010850694444444444,0,0,0.010850694444444444,52.246093749999986,0)" xlink:href="#aa"/><use transform="matrix(0.010850694444444444,0,0,0.010850694444444444,65.37543402777777,0)" xlink:href="#ab"/></g><g id="z"><use transform="matrix(0.010850694444444444,0,0,0.010850694444444444,0,0)" xlink:href="#ao"/><use transform="matrix(0.010850694444444444,0,0,0.010850694444444444,16.03732638888889,0)" xlink:href="#W"/><use transform="matrix(0.010850694444444444,0,0,0.010850694444444444,29.361979166666664,0)" xlink:href="#ae"/><use transform="matrix(0.010850694444444444,0,0,0.010850694444444444,42.31770833333333,0)" xlink:href="#aq"/></g><g id="A"><use transform="matrix(0.010850694444444444,0,0,0.010850694444444444,0,0)" xlink:href="#ap"/><use transform="matrix(0.010850694444444444,0,0,0.010850694444444444,7.269965277777778,0)" xlink:href="#ar"/><use transform="matrix(0.010850694444444444,0,0,0.010850694444444444,20.41015625,0)" xlink:href="#ae"/></g><g id="B"><use transform="matrix(0.010850694444444444,0,0,0.010850694444444444,0,0)" xlink:href="#an"/><use transform="matrix(0.010850694444444444,0,0,0.010850694444444444,19.466145833333332,0)" xlink:href="#X"/><use transform="matrix(0.010850694444444444,0,0,0.010850694444444444,31.944444444444443,0)" xlink:href="#ap"/><use transform="matrix(0.010850694444444444,0,0,0.010850694444444444,38.99739583333333,0)" xlink:href="#ah"/><use transform="matrix(0.010850694444444444,0,0,0.010850694444444444,51.69270833333333,0)" xlink:href="#ar"/></g><path d="M180 0v-1490h528c311 0 458 177 458 395 0 191-114 278-244 313v14c139 9 302 137 302 371 0 225-148 397-499 397H180zm190-168h350c232 0 321-102 321-231 0-149-120-277-311-277H370v508zm0-668h328c160 0 286-101 286-255 0-129-87-231-280-231H370v486" id="aJ"/><path d="M383-449c-3-277 82-343 222-425 88-53 156-134 156-250 0-139-108-227-243-227-118 0-235 70-246 236H82c10-251 200-395 436-395 259 0 427 165 427 393 0 161-74 273-203 352-132 80-180 132-178 316H383zm93 462c-75 0-135-60-135-134 0-75 60-135 135-135 74 0 134 60 134 135 0 74-60 134-134 134" id="aK"/><g id="C"><use transform="matrix(0.010850694444444444,0,0,0.010850694444444444,0,0)" xlink:href="#ao"/><use transform="matrix(0.010850694444444444,0,0,0.010850694444444444,16.03732638888889,0)" xlink:href="#aJ"/><use transform="matrix(0.010850694444444444,0,0,0.010850694444444444,30.577256944444443,0)" xlink:href="#aK"/></g><path d="M52 0l541-1490h220L1361 0h-200l-149-416H398L254 0H52zm404-582h497c-103-290-145-390-251-756-108 377-145 460-246 756" id="aL"/><g id="D"><use transform="matrix(0.010850694444444444,0,0,0.010850694444444444,0,0)" xlink:href="#aL"/><use transform="matrix(0.010850694444444444,0,0,0.010850694444444444,15.33203125,0)" xlink:href="#ah"/><use transform="matrix(0.010850694444444444,0,0,0.010850694444444444,28.02734375,0)" xlink:href="#ah"/><use transform="matrix(0.010850694444444444,0,0,0.010850694444444444,40.72265625,0)" xlink:href="#ae"/><use transform="matrix(0.010850694444444444,0,0,0.010850694444444444,53.678385416666664,0)" xlink:href="#aq"/><use transform="matrix(0.010850694444444444,0,0,0.010850694444444444,65.40798611111111,0)" xlink:href="#aq"/></g><path d="M677 24c-213 0-288-135-325-197h-20V0H158v-1490h180v551h14c37-59 106-193 324-193 279 0 474 222 474 576 0 356-194 580-473 580zm-27-161c209 0 317-186 317-421 0-232-105-413-317-413-206 0-314 166-314 413 0 249 111 421 314 421" id="aM"/><g id="E"><use transform="matrix(0.010850694444444444,0,0,0.010850694444444444,0,0)" xlink:href="#an"/><use transform="matrix(0.010850694444444444,0,0,0.010850694444444444,19.466145833333332,0)" xlink:href="#ae"/><use transform="matrix(0.010850694444444444,0,0,0.010850694444444444,32.421875,0)" xlink:href="#an"/><use transform="matrix(0.010850694444444444,0,0,0.010850694444444444,51.88802083333333,0)" xlink:href="#aM"/><use transform="matrix(0.010850694444444444,0,0,0.010850694444444444,65.49479166666666,0)" xlink:href="#ae"/><use transform="matrix(0.010850694444444444,0,0,0.010850694444444444,78.45052083333333,0)" xlink:href="#am"/></g><g id="F"><use transform="matrix(0.010850694444444444,0,0,0.010850694444444444,0,0)" xlink:href="#Z"/><use transform="matrix(0.010850694444444444,0,0,0.010850694444444444,5.381944444444445,0)" xlink:href="#aa"/><use transform="matrix(0.010850694444444444,0,0,0.010850694444444444,18.51128472222222,0)" xlink:href="#ac"/><use transform="matrix(0.010850694444444444,0,0,0.010850694444444444,26.085069444444443,0)" xlink:href="#W"/><use transform="matrix(0.010850694444444444,0,0,0.010850694444444444,39.40972222222222,0)" xlink:href="#am"/><use transform="matrix(0.010850694444444444,0,0,0.010850694444444444,48.12282986111111,0)" xlink:href="#an"/><use transform="matrix(0.010850694444444444,0,0,0.010850694444444444,67.58897569444444,0)" xlink:href="#X"/><use transform="matrix(0.010850694444444444,0,0,0.010850694444444444,80.06727430555556,0)" xlink:href="#ap"/><use transform="matrix(0.010850694444444444,0,0,0.010850694444444444,87.33723958333333,0)" xlink:href="#Z"/><use transform="matrix(0.010850694444444444,0,0,0.010850694444444444,92.71918402777777,0)" xlink:href="#W"/><use transform="matrix(0.010850694444444444,0,0,0.010850694444444444,106.04383680555556,0)" xlink:href="#aa"/></g><path d="M140 405l46-156c120 36 205 19 263-150l32-93L54-1118h197c107 313 237 620 324 950 87-331 219-637 326-950h196L606 167c-68 178-176 259-334 259-64 0-113-12-132-21" id="aN"/><g id="G"><use transform="matrix(0.010850694444444444,0,0,0.010850694444444444,0,0)" xlink:href="#ao"/><use transform="matrix(0.010850694444444444,0,0,0.010850694444444444,16.03732638888889,0)" xlink:href="#Z"/><use transform="matrix(0.010850694444444444,0,0,0.010850694444444444,21.419270833333336,0)" xlink:href="#aq"/><use transform="matrix(0.010850694444444444,0,0,0.010850694444444444,33.14887152777778,0)" xlink:href="#ag"/><use transform="matrix(0.010850694444444444,0,0,0.010850694444444444,46.75564236111111,0)" xlink:href="#ad"/><use transform="matrix(0.010850694444444444,0,0,0.010850694444444444,52.13758680555556,0)" xlink:href="#X"/><use transform="matrix(0.010850694444444444,0,0,0.010850694444444444,64.29036458333333,0)" xlink:href="#aN"/></g><path d="M232-923l-22-567h194l-22 567H232zm340 0l-22-567h194l-22 567H572" id="aO"/><path d="M763 24c-353 0-583-224-583-531v-983h190v968c0 214 149 370 393 370 243 0 391-156 391-370v-968h190v983c0 307-230 531-581 531" id="aP"/><path d="M409 0L70-1118h191c89 329 165 560 243 925 75-353 154-601 240-925h192c85 325 161 564 235 922 77-354 157-598 244-922h191L1267 0h-179c-86-307-176-590-250-913C763-588 675-308 588 0H409" id="aQ"/><g id="H"><use transform="matrix(0.010850694444444444,0,0,0.010850694444444444,0,0)" xlink:href="#aO"/><use transform="matrix(0.010850694444444444,0,0,0.010850694444444444,10.3515625,0)" xlink:href="#aP"/><use transform="matrix(0.010850694444444444,0,0,0.010850694444444444,26.888020833333332,0)" xlink:href="#aa"/><use transform="matrix(0.010850694444444444,0,0,0.010850694444444444,40.01736111111111,0)" xlink:href="#ai"/><use transform="matrix(0.010850694444444444,0,0,0.010850694444444444,52.213541666666664,0)" xlink:href="#aa"/><use transform="matrix(0.010850694444444444,0,0,0.010850694444444444,65.34288194444444,0)" xlink:href="#W"/><use transform="matrix(0.010850694444444444,0,0,0.010850694444444444,78.26605902777777,0)" xlink:href="#aQ"/><use transform="matrix(0.010850694444444444,0,0,0.010850694444444444,96.45182291666666,0)" xlink:href="#aO"/></g><g id="I"><use transform="matrix(0.010850694444444444,0,0,0.010850694444444444,0,0)" xlink:href="#Y"/><use transform="matrix(0.010850694444444444,0,0,0.010850694444444444,13.606770833333332,0)" xlink:href="#X"/><use transform="matrix(0.010850694444444444,0,0,0.010850694444444444,26.085069444444443,0)" xlink:href="#ap"/><use transform="matrix(0.010850694444444444,0,0,0.010850694444444444,33.13802083333333,0)" xlink:href="#ae"/></g><g id="J"><use transform="matrix(0.010850694444444444,0,0,0.010850694444444444,0,0)" xlink:href="#Z"/><use transform="matrix(0.010850694444444444,0,0,0.010850694444444444,5.381944444444445,0)" xlink:href="#aq"/></g><path d="M65 0l393-574-370-544h210c88 136 192 297 267 435 67-142 176-302 264-435h206L661-564 1053 0H844c-94-144-206-310-287-458C484-308 366-142 273 0H65" id="aR"/><g id="K"><use transform="matrix(0.010850694444444444,0,0,0.010850694444444444,0,0)" xlink:href="#ae"/><use transform="matrix(0.010850694444444444,0,0,0.010850694444444444,12.456597222222221,0)" xlink:href="#aR"/><use transform="matrix(0.010850694444444444,0,0,0.010850694444444444,24.58767361111111,0)" xlink:href="#ag"/><use transform="matrix(0.010850694444444444,0,0,0.010850694444444444,38.19444444444444,0)" xlink:href="#Z"/><use transform="matrix(0.010850694444444444,0,0,0.010850694444444444,43.576388888888886,0)" xlink:href="#am"/><use transform="matrix(0.010850694444444444,0,0,0.010850694444444444,51.573350694444436,0)" xlink:href="#ae"/><use transform="matrix(0.010850694444444444,0,0,0.010850694444444444,64.5290798611111,0)" xlink:href="#Y"/><use transform="matrix(0.010850694444444444,0,0,0.010850694444444444,78.13585069444443,0)" xlink:href="#aK"/></g><g id="L"><use transform="matrix(0.010850694444444444,0,0,0.010850694444444444,0,0)" xlink:href="#ao"/><use transform="matrix(0.010850694444444444,0,0,0.010850694444444444,16.03732638888889,0)" xlink:href="#Z"/><use transform="matrix(0.010850694444444444,0,0,0.010850694444444444,21.419270833333336,0)" xlink:href="#aq"/><use transform="matrix(0.010850694444444444,0,0,0.010850694444444444,33.14887152777778,0)" xlink:href="#ag"/><use transform="matrix(0.010850694444444444,0,0,0.010850694444444444,46.75564236111111,0)" xlink:href="#ad"/><use transform="matrix(0.010850694444444444,0,0,0.010850694444444444,52.13758680555556,0)" xlink:href="#X"/><use transform="matrix(0.010850694444444444,0,0,0.010850694444444444,64.29036458333333,0)" xlink:href="#aN"/></g><path d="M458 0L52-1490h194c108 439 233 855 324 1313 92-459 221-873 331-1313h216c110 438 234 854 330 1307 92-455 216-869 323-1307h196L1558 0h-221l-256-944c-26-95-50-200-73-331-22 122-44 223-73 331L680 0H458" id="aS"/><g id="M"><use transform="matrix(0.010850694444444444,0,0,0.010850694444444444,0,0)" xlink:href="#aO"/><use transform="matrix(0.010850694444444444,0,0,0.010850694444444444,10.3515625,0)" xlink:href="#aS"/><use transform="matrix(0.010850694444444444,0,0,0.010850694444444444,31.119791666666664,0)" xlink:href="#ae"/><use transform="matrix(0.010850694444444444,0,0,0.010850694444444444,44.075520833333336,0)" xlink:href="#ad"/><use transform="matrix(0.010850694444444444,0,0,0.010850694444444444,49.45746527777778,0)" xlink:href="#ah"/><use transform="matrix(0.010850694444444444,0,0,0.010850694444444444,62.15277777777778,0)" xlink:href="#W"/><use transform="matrix(0.010850694444444444,0,0,0.010850694444444444,75.47743055555556,0)" xlink:href="#an"/><use transform="matrix(0.010850694444444444,0,0,0.010850694444444444,94.94357638888889,0)" xlink:href="#ae"/></g><path d="M57 0l534-763-501-727h220c122 187 296 416 391 605 94-191 272-419 396-605h215L811-770 1340 0h-219C986-204 811-426 699-640 588-430 407-202 273 0H57" id="aT"/><g id="N"><use transform="matrix(0.010850694444444444,0,0,0.010850694444444444,0,0)" xlink:href="#aT"/><use transform="matrix(0.010850694444444444,0,0,0.010850694444444444,15.158420138888888,0)" xlink:href="#aO"/></g><path d="M580 20c-295 0-476-179-476-409 0-189 123-290 294-416-104-125-173-226-173-362 0-197 144-337 365-337 224 0 362 144 362 321 0 185-174 312-306 405l319 387c38-75 61-165 61-267h173c0 208-62 332-120 406L1287 0h-217L967-124C868-27 716 20 580 20zm279-273L507-675l-51 38c-123 91-167 162-167 254 0 147 113 246 278 246 107 0 210-41 292-116zM538-908l97-72c54-40 136-101 136-206 0-95-68-163-176-163-113 0-189 74-189 181 0 90 53 164 132 260" id="aU"/><use transform="matrix(0.010850694444444444,0,0,0.010850694444444444,0,0)" xlink:href="#aU" id="O"/><g id="P"><use transform="matrix(0.010850694444444444,0,0,0.010850694444444444,0,0)" xlink:href="#aS"/><use transform="matrix(0.010850694444444444,0,0,0.010850694444444444,21.14800347222222,0)" xlink:href="#am"/><use transform="matrix(0.010850694444444444,0,0,0.010850694444444444,29.861111111111104,0)" xlink:href="#Z"/><use transform="matrix(0.010850694444444444,0,0,0.010850694444444444,35.24305555555555,0)" xlink:href="#ap"/><use transform="matrix(0.010850694444444444,0,0,0.010850694444444444,42.29600694444444,0)" xlink:href="#ae"/></g><g id="Q"><use transform="matrix(0.010850694444444444,0,0,0.010850694444444444,0,0)" xlink:href="#ad"/><use transform="matrix(0.010850694444444444,0,0,0.010850694444444444,5.381944444444445,0)" xlink:href="#W"/><use transform="matrix(0.010850694444444444,0,0,0.010850694444444444,18.70659722222222,0)" xlink:href="#ab"/></g><path d="M798-719v166H144v-166h654" id="aV"/><g id="R"><use transform="matrix(0.010850694444444444,0,0,0.010850694444444444,0,0)" xlink:href="#aw"/><use transform="matrix(0.010850694444444444,0,0,0.010850694444444444,16.23263888888889,0)" xlink:href="#ar"/><use transform="matrix(0.010850694444444444,0,0,0.010850694444444444,29.37282986111111,0)" xlink:href="#ae"/><use transform="matrix(0.010850694444444444,0,0,0.010850694444444444,42.32855902777778,0)" xlink:href="#ah"/><use transform="matrix(0.010850694444444444,0,0,0.010850694444444444,55.02387152777778,0)" xlink:href="#ai"/><use transform="matrix(0.010850694444444444,0,0,0.010850694444444444,66.2109375,0)" xlink:href="#aV"/><use transform="matrix(0.010850694444444444,0,0,0.010850694444444444,76.43229166666667,0)" xlink:href="#Z"/><use transform="matrix(0.010850694444444444,0,0,0.010850694444444444,81.81423611111111,0)" xlink:href="#aa"/></g><path d="M180 0v-1490h908v168H370v486h669v168H370v500h727V0H180" id="aW"/><g id="S"><use transform="matrix(0.010850694444444444,0,0,0.010850694444444444,0,0)" xlink:href="#aO"/><use transform="matrix(0.010850694444444444,0,0,0.010850694444444444,10.3515625,0)" xlink:href="#aW"/><use transform="matrix(0.010850694444444444,0,0,0.010850694444444444,23.70876736111111,0)" xlink:href="#aR"/><use transform="matrix(0.010850694444444444,0,0,0.010850694444444444,35.83984375,0)" xlink:href="#ag"/><use transform="matrix(0.010850694444444444,0,0,0.010850694444444444,49.44661458333333,0)" xlink:href="#Z"/><use transform="matrix(0.010850694444444444,0,0,0.010850694444444444,54.82855902777778,0)" xlink:href="#am"/><use transform="matrix(0.010850694444444444,0,0,0.010850694444444444,62.82552083333332,0)" xlink:href="#ae"/><use transform="matrix(0.010850694444444444,0,0,0.010850694444444444,75.78124999999999,0)" xlink:href="#Y"/></g><g id="T"><use transform="matrix(0.010850694444444444,0,0,0.010850694444444444,0,0)" xlink:href="#Y"/><use transform="matrix(0.010850694444444444,0,0,0.010850694444444444,13.606770833333332,0)" xlink:href="#X"/><use transform="matrix(0.010850694444444444,0,0,0.010850694444444444,26.085069444444443,0)" xlink:href="#ap"/><use transform="matrix(0.010850694444444444,0,0,0.010850694444444444,33.13802083333333,0)" xlink:href="#ae"/><use transform="matrix(0.010850694444444444,0,0,0.010850694444444444,45.76822916666666,0)" xlink:href="#aO"/></g><path d="M657 26c-323 0-524-166-541-416h195c15 169 171 246 346 246 202 0 356-106 356-265 5-203-294-238-475-293-239-73-380-191-380-389 0-252 224-419 512-419 294 0 499 171 508 396H992c-17-145-151-228-328-228-193 0-321 102-321 242 0 156 175 211 284 241l149 41c160 44 422 134 422 412 0 244-197 432-541 432" id="aX"/><g id="U"><use transform="matrix(0.010850694444444444,0,0,0.010850694444444444,0,0)" xlink:href="#aX"/><use transform="matrix(0.010850694444444444,0,0,0.010850694444444444,14.2578125,0)" xlink:href="#ap"/><use transform="matrix(0.010850694444444444,0,0,0.010850694444444444,21.63628472222222,0)" xlink:href="#X"/><use transform="matrix(0.010850694444444444,0,0,0.010850694444444444,34.11458333333333,0)" xlink:href="#am"/><use transform="matrix(0.010850694444444444,0,0,0.010850694444444444,42.827690972222214,0)" xlink:href="#ap"/></g></defs></g></svg>